<svg width="64" height="64" viewBox="0 0 64 64" fill="none" xmlns="http://www.w3.org/2000/svg">
<g clip-path="url(#clip0_141_967)">
<path d="M31.184 45.408V28.464H36.752V45.408H31.184ZM16.64 45.408V28.464H22.208V45.408H16.64ZM36.752 28.56H31.184C31.184 27.024 30.784 25.84 29.984 25.008C29.184 24.144 28.08 23.712 26.672 23.712V19.2C28.656 19.2 30.4 19.6 31.904 20.4C33.408 21.2 34.592 22.304 35.456 23.712C36.32 25.12 36.752 26.736 36.752 28.56ZM16.64 28.56C16.64 26.736 17.072 25.12 17.936 23.712C18.8 22.304 19.984 21.2 21.488 20.4C23.024 19.6 24.768 19.2 26.72 19.2V23.712C25.312 23.712 24.208 24.144 23.408 25.008C22.608 25.84 22.208 27.024 22.208 28.56H16.64ZM36.752 45.36C36.752 47.184 36.32 48.8 35.456 50.208C34.592 51.616 33.408 52.72 31.904 53.52C30.4 54.32 28.656 54.72 26.672 54.72V50.16C28.08 50.16 29.184 49.744 29.984 48.912C30.784 48.048 31.184 46.864 31.184 45.36H36.752ZM16.64 45.36H22.208C22.208 46.864 22.608 48.048 23.408 48.912C24.208 49.744 25.312 50.16 26.72 50.16V54.72C24.768 54.72 23.024 54.32 21.488 53.52C19.984 52.72 18.8 51.616 17.936 50.208C17.072 48.8 16.64 47.184 16.64 45.36Z" fill="white"/>
<path d="M28.0994 33.5392L44.466 29.1538L45.9071 34.532L29.5405 38.9175L28.0994 33.5392ZM24.3351 19.4908L40.7017 15.1053L42.1429 20.4836L25.7762 24.869L24.3351 19.4908ZM45.8144 34.5569L44.3733 29.1786C45.8569 28.7811 46.8971 28.0883 47.4937 27.1002C48.1212 26.1038 48.2527 24.9256 47.8883 23.5656L52.2466 22.3978C52.7601 24.3142 52.8251 26.1023 52.4416 27.7621C52.0581 29.4219 51.2982 30.8513 50.1618 32.0503C49.0254 33.2493 47.5762 34.0848 45.8144 34.5569ZM40.609 15.1302C42.3709 14.6581 44.0436 14.6571 45.6273 15.1273C47.2109 15.5974 48.5837 16.4553 49.7457 17.701C50.916 18.9776 51.7538 20.5587 52.259 22.4442L47.9007 23.612C47.5363 22.2519 46.8333 21.2974 45.7917 20.7482C44.781 20.1908 43.5338 20.1109 42.0501 20.5085L40.609 15.1302ZM29.5868 38.905C27.825 39.3771 26.1522 39.3781 24.5686 38.908C22.985 38.4378 21.6121 37.5799 20.4501 36.3342C19.2881 35.0885 18.4504 33.5075 17.9369 31.5911L22.3415 30.4108C22.7059 31.7709 23.3935 32.7296 24.4042 33.287C25.4458 33.8361 26.693 33.916 28.1457 33.5268L29.5868 38.905ZM24.3815 19.4783L25.8226 24.8566C24.3698 25.2459 23.3297 25.9387 22.7022 26.9351C22.1056 27.9231 21.9895 29.0972 22.3539 30.4572L17.9493 31.6374C17.4441 29.7519 17.3791 27.9638 17.7543 26.2731C18.1377 24.6133 18.8977 23.1839 20.0341 21.9849C21.1705 20.786 22.6196 19.9504 24.3815 19.4783Z" fill="white"/>
<path d="M28.0994 33.5392L44.466 29.1538L45.9071 34.532L29.5405 38.9175L28.0994 33.5392ZM24.3351 19.4908L40.7017 15.1053L42.1429 20.4836L25.7762 24.869L24.3351 19.4908ZM45.8144 34.5569L44.3733 29.1786C45.8569 28.7811 46.8971 28.0883 47.4937 27.1002C48.1212 26.1038 48.2527 24.9256 47.8883 23.5656L52.2466 22.3978C52.7601 24.3142 52.8251 26.1023 52.4416 27.7621C52.0581 29.4219 51.2982 30.8513 50.1618 32.0503C49.0254 33.2493 47.5762 34.0848 45.8144 34.5569ZM40.609 15.1302C42.3709 14.6581 44.0436 14.6571 45.6273 15.1273C47.2109 15.5974 48.5837 16.4553 49.7457 17.701C50.916 18.9776 51.7538 20.5587 52.259 22.4442L47.9007 23.612C47.5363 22.2519 46.8333 21.2974 45.7917 20.7482C44.781 20.1908 43.5338 20.1109 42.0501 20.5085L40.609 15.1302ZM29.5868 38.905C27.825 39.3771 26.1522 39.3781 24.5686 38.908C22.985 38.4378 21.6121 37.5799 20.4501 36.3342C19.2881 35.0885 18.4504 33.5075 17.9369 31.5911L22.3415 30.4108C22.7059 31.7709 23.3935 32.7296 24.4042 33.287C25.4458 33.8361 26.693 33.916 28.1457 33.5268L29.5868 38.905ZM24.3815 19.4783L25.8226 24.8566C24.3698 25.2459 23.3297 25.9387 22.7022 26.9351C22.1056 27.9231 21.9895 29.0972 22.3539 30.4572L17.9493 31.6374C17.4441 29.7519 17.3791 27.9638 17.7543 26.2731C18.1377 24.6133 18.8977 23.1839 20.0341 21.9849C21.1705 20.786 22.6196 19.9504 24.3815 19.4783Z" fill="white"/>
<circle cx="27.5" cy="28.5" r="7.5" fill="white"/>
</g>
<defs>
<clipPath id="clip0_141_967">
<rect width="64" height="64" fill="white"/>
</clipPath>
</defs>
</svg>
